<svg xmlns="http://www.w3.org/2000/svg" version="1.1" xmlns:xlink="http://www.w3.org/1999/xlink" xmlns:svgjs="http://svgjs.dev/svgjs" viewBox="0 0 1422 800"><defs><filter id="uuunion-blur" x="-100%" y="-100%" width="400%" height="400%" color-interpolation-filters="sRGB">
        <feGaussianBlur in="SourceGraphic" stdDeviation="5.5 0" result="blur"></feGaussianBlur>
        <feDropShadow stdDeviation="12.307692307692308" in="blur" dx="10" dy="10" flood-color="hsl(332, 87%, 70%)" flood-opacity="0.25" x="0%" y="0%" width="100%" height="100%"></feDropShadow>
      </filter><filter id="uuunion-blur2" x="-100%" y="-100%" width="400%" height="400%" color-interpolation-filters="sRGB">
        <feGaussianBlur in="SourceGraphic" stdDeviation="5.5 0" result="blur"></feGaussianBlur>
        <feDropShadow stdDeviation="12.307692307692308" in="blur" dx="-10" dy="-10" flood-color="hsl(332, 87%, 70%)" flood-opacity="0.25" x="0%" y="0%" width="100%" height="100%"></feDropShadow>
      </filter><linearGradient gradientTransform="rotate(0, 0.5, 0.5)" x1="50%" y1="0%" x2="50%" y2="100%" id="uuunion-grad"><stop stop-color="hsl(184, 74%, 44%)" offset="10%"></stop><stop stop-color="hsl(332, 87%, 70%)" offset="90%"></stop></linearGradient><linearGradient gradientTransform="rotate(135, 0.5, 0.5)" x1="50%" y1="0%" x2="50%" y2="100%" id="uuunion-grad2"><stop stop-color="hsl(184, 74%, 44%)" offset="25%"></stop><stop stop-color="hsl(332, 87%, 70%)" offset="100%"></stop></linearGradient><linearGradient gradientTransform="rotate(333, 0.5, 0.5)" x1="50%" y1="0%" x2="50%" y2="100%" id="uuunion-grad3"><stop stop-color="hsl(184, 74%, 44%)" offset="0%"></stop><stop stop-color="hsl(332, 87%, 70%)" offset="75%"></stop></linearGradient></defs><path d="M-131.62 -88.76Q-118.63 -88.6 -105.64 -87.65 -92.65 -86.01 -79.65 -83.81 -66.66 -81.27 -53.67 -78.62 -40.68 -76.09 -27.69 -73.91 -14.69 -72.29 -1.7 -71.37 11.28 -71.24 24.27 -71.9 37.26 -73.31 50.25 -75.32 63.25 -77.75 76.24 -80.39 89.23 -83 102.22 -85.33 115.21 -87.17 128.21 -88.37 141.2 -88.79 154.19 -88.42 167.18 -87.28 180.17 -85.48 193.17 -83.17 206.16 -80.58 219.15 -77.93 232.14 -75.47 245.13 -73.43 258.12 -71.98 271.12 -71.26 284.11 -71.34 297.1 -72.2 310.09 -73.78 323.08 -75.92 336.08 -78.43 349.07 -81.09 362.06 -83.64 375.05 -85.87 388.04 -87.56 401.03 -88.55 414.03 -88.77 427.02 -88.19 440.01 -86.87 453 -84.91 465.99 -82.51 478.99 -79.88 491.98 -77.26 504.97 -74.89 517.96 -72.98 530.95 -71.72 543.95 -71.2 556.94 -71.49 569.93 -72.55 582.92 -74.29 595.91 -76.55 608.9 -79.13 621.9 -81.78 634.89 -84.27 647.88 -86.37 660.87 -87.89 673.86 -88.69 686.86 -88.7 699.85 -87.91 712.84 -86.41 725.83 -84.32 738.82 -81.84 751.82 -79.18 764.81 -76.61 777.8 -74.34 790.79 -72.58 803.78 -71.51 816.77 -71.2 829.77 -71.7 842.76 -72.95 855.75 -74.84 868.74 -77.21 881.73 -79.82 894.73 -82.46 907.72 -84.87 920.71 -86.83 933.7 -88.17 946.69 -88.77 959.69 -88.57 972.68 -87.58 985.67 -85.91 998.66 -83.7 1011.65 -81.15 1024.64 -78.49 1037.64 -75.97 1050.63 -73.82 1063.62 -72.23 1076.61 -71.35 1089.6 -71.25 1102.6 -71.96 1115.59 -73.39 1128.58 -75.43 1141.57 -77.88 1154.56 -80.52 1167.56 -83.12 1180.55 -85.43 1193.54 -87.25 1206.53 -88.4 1219.52 -88.79 1232.52 -88.38 1245.51 -87.21 1258.5 -85.37 1271.49 -83.05 1284.48 -80.45 1297.48 -77.81 1310.47 -75.36 1323.46 -73.34 1336.45 -71.93 1349.44 -71.25 1362.44 -71.36 1375.43 -72.27 1388.42 -73.87 1401.41 -76.04 1414.4 -78.56 1427.39 -81.22 1440.39 -83.76 1453.38 -85.96 1466.37 -87.62 1479.36 -88.58 1492.35 -88.76 1505.35 -88.15 1518.34 -86.78 1531.33 -84.81 1530.45 -69.93 1533.45 -55.05 1539.99 -40.17 1549.31 -25.3 1560.35 -10.42 1571.83 4.45 1582.43 19.32 1590.94 34.2 1596.36 49.08 1598.08 63.95 1595.91 78.83 1590.08 93.71 1581.27 108.59 1570.5 123.46 1559 138.34 1548.1 153.22 1539.05 168.09 1532.9 182.97 1530.35 197.85 1531.69 212.73 1536.78 227.6 1545.02 242.48 1555.47 257.36 1566.92 272.23 1578.06 287.11 1587.6 301.99 1594.45 316.86 1597.82 331.74 1597.32 346.62 1593 361.5 1585.37 376.37 1575.3 391.25 1563.96 406.13 1552.64 421 1542.65 435.88 1535.14 450.76 1530.97 465.63 1530.63 480.51 1534.16 495.39 1541.13 510.27 1550.77 525.14 1561.95 540.02 1573.38 554.9 1583.76 569.77 1591.89 584.65 1596.83 599.53 1598.01 614.4 1595.31 629.28 1589.02 644.16 1579.87 659.04 1568.92 673.91 1557.42 688.79 1546.71 703.67 1538.01 718.54 1532.32 733.42 1530.3 748.3 1532.18 763.17 1537.75 778.05 1546.36 792.93 1557.02 807.81 1568.51 822.68 1579.5 837.56 1585.11 857.27 1567.84 858.51 1554.19 856.88 1540.54 857.35 1526.89 859.89 1513.24 864.26 1499.59 870.06 1485.93 876.77 1472.28 883.77 1458.63 890.43 1444.98 896.14 1431.33 900.37 1417.68 902.75 1404.03 903.06 1390.38 901.27 1376.73 897.53 1363.08 892.2 1349.43 885.76 1335.78 878.79 1322.13 871.94 1308.48 865.81 1294.82 860.98 1281.17 857.88 1267.52 856.8 1253.87 857.82 1240.22 860.87 1226.57 865.66 1212.92 871.76 1199.27 878.6 1185.62 885.58 1171.97 892.04 1158.32 897.41 1144.67 901.19 1131.02 903.04 1117.37 902.79 1103.72 900.46 1090.06 896.27 1076.41 890.6 1062.76 883.96 1049.11 876.96 1035.46 870.23 1021.81 864.4 1008.16 859.99 994.51 857.39 980.86 856.86 967.21 858.44 953.56 861.97 939.91 867.16 926.26 873.51 912.61 880.45 898.95 887.35 885.3 893.58 871.65 898.57 858 901.87 844.35 903.18 830.7 902.38 817.05 899.53 803.4 894.91 789.75 888.93 776.1 882.13 762.45 875.14 748.8 868.6 735.15 863.09 721.5 859.12 707.85 857.05 694.2 857.07 680.54 859.18 666.89 863.19 653.24 868.73 639.59 875.29 625.94 882.29 612.29 889.07 598.64 895.03 584.99 899.61 571.34 902.42 557.69 903.17 544.04 901.82 530.39 898.48 516.74 893.45 503.09 887.2 489.44 880.29 475.78 873.36 462.13 867.03 448.48 861.88 434.83 858.38 421.18 856.85 407.53 857.43 393.88 860.06 380.23 864.51 366.58 870.37 352.93 877.11 339.28 884.11 325.63 890.73 311.98 896.38 298.33 900.54 284.68 902.82 271.03 903.02 257.38 901.13 243.72 897.31 230.07 891.91 216.42 885.43 202.77 878.45 189.12 871.62 175.47 865.54 161.82 860.79 148.17 857.78 134.52 856.8 120.87 857.93 107.22 861.07 93.57 865.93 79.92 872.08 66.27 878.94 52.62 885.91 38.97 892.33 25.31 897.63 11.66 901.33 -1.98 903.08 -15.63 902.72 -29.28 900.3 -42.93 896.03 -56.58 890.3 -70.23 883.62 -83.88 876.62 -97.53 869.93 -111.18 864.15 -124.83 859.82 -138.48 857.32 -152.13 856.89 -150.07 842.11 -147.11 827.34 -143.57 812.56 -139.88 797.79 -136.45 783.01 -133.68 768.23 -131.89 753.46 -131.29 738.68 -131.94 723.91 -133.77 709.13 -136.56 694.35 -140.01 679.58 -143.7 664.8 -147.22 650.03 -150.16 635.25 -152.19 620.47 -153.06 605.7 -152.68 590.92 -151.09 576.15 -148.48 561.37 -145.14 546.59 -141.46 531.82 -137.87 517.04 -134.77 502.27 -132.53 487.49 -131.4 472.72 -131.51 457.94 -132.84 443.16 -135.26 428.39 -138.47 413.61 -142.11 398.84 -145.76 384.06 -148.99 369.28 -151.45 354.51 -152.83 339.73 -152.99 324.96 -151.91 310.18 -149.71 295.4 -146.64 280.63 -143.06 265.85 -139.38 251.08 -136.02 236.3 -133.37 221.52 -131.74 206.75 -131.3 191.97 -132.12 177.2 -134.1 162.42 -137.01 147.65 -140.52 132.87 -144.21 118.09 -147.67 103.32 -150.51 88.54 -152.38 73.77 -153.08 58.99 -152.53 44.21 -150.78 29.44 -148.05 14.66 -144.64 -0.1 -140.95 -14.88 -137.4 -29.66 -134.4 -44.43 -132.3 -59.21 -131.34 -73.98 -131.62 -88.76" fill="url(#uuunion-grad)"></path><path d="M-131.63 -88.76Q-131.35 -73.98 -132.31 -59.21 -134.41 -44.43 -137.41 -29.66 -140.96 -14.88 -144.65 -0.1 -148.06 14.66 -150.79 29.44 -152.54 44.21 -153.09 58.99 -152.39 73.77 -150.52 88.54 -147.68 103.32 -144.22 118.09 -140.53 132.87 -137.02 147.65 -134.11 162.42 -132.13 177.2 -131.31 191.97 -131.75 206.75 -133.38 221.53 -136.03 236.3 -139.39 251.08 -143.07 265.85 -146.65 280.63 -149.72 295.4 -151.92 310.18 -153 324.96 -152.84 339.73 -151.46 354.51 -149 369.28 -145.77 384.06 -136.8 384.09 -127.84 384.78 -118.87 386.08 -109.91 387.94 -100.95 390.3 -91.98 393.05 -83.02 396.08 -74.05 399.27 -65.09 402.49 -56.13 405.61 -47.16 408.51 -38.2 411.05 -29.23 413.15 -20.27 414.71 -3.33 415.9 -0.34 415.98 10.39 412.12 21.18 407.31 32.02 401.65 42.91 395.31 53.86 388.5 64.85 381.45 75.89 374.4 86.98 367.62 98.12 361.32 109.29 355.71 120.51 350.94 131.76 347.1 143.04 344.23 154.35 342.32 165.69 341.28 177.05 340.97 188.42 341.22 199.8 341.8 211.2 342.48 222.59 343.02 233.99 343.19 245.38 342.78 256.76 341.63 268.13 339.61 279.47 336.67 290.8 332.79 302.1 328.03 313.37 322.5 324.61 316.35 335.82 309.78 346.98 303.01 358.11 296.28 369.2 289.79 380.24 283.78 391.24 278.42 402.2 273.83 413.11 270.12 423.98 267.31 434.8 265.38 445.59 264.24 456.33 263.77 467.03 263.79 477.7 264.1 488.33 264.49 498.94 264.72 509.51 264.6 520.07 263.93 530.6 262.56 541.12 260.38 551.63 257.35 562.14 253.46 572.64 248.77 583.15 243.37 593.68 237.43 604.21 231.11 614.77 224.63 625.36 218.19 635.97 212.01 646.63 206.28 657.32 201.15 668.06 196.75 678.86 193.16 689.71 190.39 700.62 188.43 711.6 187.18 722.64 186.53 733.75 186.32 744.94 186.36 756.2 186.45 767.54 186.38 778.96 185.97 790.46 185.04 802.04 183.46 813.69 181.14 825.43 178.03 837.24 174.15 849.13 169.53 861.09 164.28 873.12 158.54 885.21 152.48 897.37 146.29 909.58 140.16 921.84 134.27 934.15 128.81 946.5 123.91 958.88 119.69 971.29 116.2 983.72 113.47 996.16 111.45 1008.61 110.09 1021.05 109.26 1033.48 108.81 1045.89 108.57 1058.27 108.36 1070.61 107.99 1082.91 107.3 1095.15 106.12 1107.33 104.34 1119.45 101.89 1131.48 98.72 1143.43 94.84 1155.29 90.31 1167.05 85.22 1178.71 79.7 1190.26 73.9 1201.69 68 1213 62.17 1224.18 56.57 1235.24 51.38 1246.17 46.7 1256.97 42.64 1267.63 39.25 1278.16 36.53 1288.55 34.47 1298.81 32.97 1308.94 31.95 1318.95 31.26 1328.82 30.74 1338.58 30.23 1348.22 29.56 1357.75 28.59 1367.18 27.17 1376.51 25.2 1385.75 22.63 1394.91 19.4 1403.99 15.55 1413.02 11.12 1422 6.19 1410.31 -11.46 1400.45 -29.12 1393.96 -46.78 1391.84 -64.45 1394.43 -82.11 1401.32 -99.77 1411.16 -125.51 1398.56 -132.55 1386.23 -132.11 1373.91 -132.28 1361.58 -133.05 1349.26 -134.36 1336.93 -136.11 1324.6 -138.16 1312.28 -140.35 1299.95 -142.52 1287.63 -144.49 1275.3 -146.11 1262.98 -147.25 1250.65 -147.83 1238.33 -147.8 1226 -147.16 1213.67 -145.97 1201.35 -144.31 1189.02 -142.31 1176.7 -140.14 1164.37 -137.95 1152.05 -135.92 1139.72 -134.21 1127.4 -132.95 1115.07 -132.24 1102.75 -132.13 1090.42 -132.63 1078.09 -133.7 1065.77 -135.27 1053.44 -137.2 1041.12 -139.35 1028.79 -141.55 1016.47 -143.63 1004.14 -145.43 991.82 -146.8 979.49 -147.64 967.16 -147.89 954.84 -147.53 942.51 -146.58 930.19 -145.11 917.86 -143.25 905.54 -141.14 893.21 -138.93 880.89 -136.81 868.56 -134.94 856.24 -133.46 843.91 -132.49 831.58 -132.1 819.26 -132.33 806.93 -133.15 794.61 -134.51 782.28 -136.29 769.96 -138.36 757.63 -140.56 745.31 -142.71 732.98 -144.66 720.65 -146.24 708.33 -147.33 696 -147.86 683.68 -147.77 671.35 -147.08 659.03 -145.83 646.7 -144.14 634.38 -142.12 622.05 -139.93 609.73 -137.75 597.4 -135.75 585.07 -134.07 572.75 -132.86 560.42 -132.2 548.1 -132.15 535.77 -132.71 523.45 -133.83 511.12 -135.44 498.8 -137.39 486.47 -139.56 474.14 -141.75 461.82 -143.81 449.49 -145.57 437.17 -146.9 424.84 -147.69 412.52 -147.88 400.19 -147.46 387.87 -146.46 375.54 -144.95 363.22 -143.06 350.89 -140.93 338.56 -138.73 326.24 -136.63 313.91 -134.78 301.59 -133.35 289.26 -132.43 276.94 -132.1 264.61 -132.38 252.29 -133.26 239.96 -134.66 227.63 -136.47 215.31 -138.56 202.98 -140.76 190.66 -142.9 178.33 -144.82 166.01 -146.36 153.68 -147.4 141.36 -147.87 129.03 -147.73 116.71 -146.98 104.38 -145.69 92.05 -143.96 79.73 -141.92 67.4 -139.73 55.08 -137.56 42.75 -135.58 30.43 -133.94 18.1 -132.77 5.78 -132.17 -6.54 -132.17 -18.87 -132.79 -31.19 -133.96 -43.52 -135.6 -55.84 -137.59 -68.17 -139.76 -80.49 -141.95 -92.82 -143.99 -105.14 -145.72 -117.47 -147 -129.79 -147.74 -144.93 -140.32 -141.48 -118.14 -136.02 -103.46 -131.63 -88.76" fill="url(#uuunion-grad2)" filter="url(#uuunion-blur)"></path><path d="M1447.21 329.17Q1456.29 326.65 1465.37 323.87 1474.45 320.92 1483.54 317.94 1492.62 315.04 1501.7 312.34 1510.78 309.96 1519.86 307.98 1528.95 306.49 1538.03 305.55 1547.11 305.2 1556.19 305.45 1565.28 306.29 1574.36 307.68 1583.44 309.58 1592.52 311.91 1597.52 329.26 1597.32 346.62 1591.94 363.97 1582.23 381.33 1569.71 398.69 1556.33 416.04 1544.17 433.4 1535.14 450.76 1530.65 468.11 1531.39 485.47 1537.25 502.83 1547.33 520.18 1560.03 537.54 1573.38 554.9 1585.3 572.25 1593.93 589.61 1597.91 606.97 1596.63 624.32 1590.29 641.68 1579.87 659.04 1567 676.39 1553.7 693.75 1542.04 711.1 1533.83 728.46 1530.37 745.82 1532.18 763.17 1539 780.53 1549.74 797.89 1562.75 815.24 1575.98 832.6 1584.99 856.21 1570.1 858.97 1557.58 857.09 1545.06 856.96 1532.53 858.6 1520.01 861.88 1507.49 866.55 1494.97 872.26 1482.45 878.56 1469.93 884.96 1457.41 890.99 1444.89 896.17 1432.37 900.11 1419.84 902.51 1407.32 903.18 1394.8 902.07 1382.28 899.27 1369.76 894.98 1357.24 889.55 1344.72 883.38 1332.2 876.96 1319.67 870.76 1307.15 865.28 1294.63 860.92 1282.11 858.03 1269.59 856.82 1257.07 857.4 1244.55 859.7 1232.03 863.56 1219.51 868.69 1206.98 874.68 1194.46 881.08 1181.94 887.39 1169.42 893.14 1156.9 897.88 1144.38 901.25 1131.86 902.99 1119.34 902.96 1106.82 901.17 1094.29 897.75 1081.77 892.97 1069.25 887.2 1056.73 880.87 1044.21 874.48 1031.69 868.51 1019.17 863.42 1006.65 859.6 994.12 857.35 981.6 856.84 969.08 858.1 956.56 861.04 944.04 865.44 931.52 870.95 919 877.16 906.48 883.59 893.96 889.74 881.43 895.14 868.91 899.38 856.39 902.13 843.87 903.19 831.35 902.46 818.83 900.01 806.31 896.02 793.79 890.81 781.26 884.76 768.74 878.35 756.22 872.06 743.7 866.39 731.18 861.75 718.66 858.52 706.14 856.94 693.62 857.12 681.1 859.06 668.57 862.61 656.05 867.49 643.53 873.33 631.01 879.68 618.49 886.06 605.97 891.97 593.45 896.96 580.93 900.65 568.4 902.76 555.88 903.12 543.36 901.7 530.84 898.62 518.32 894.11 505.8 888.52 493.28 882.27 480.76 875.85 468.24 869.74 455.71 864.43 443.19 860.31 430.67 857.69 418.15 856.8 405.63 857.68 393.11 860.27 380.59 864.38 368.07 869.68 355.54 875.78 343.02 882.2 330.5 888.45 317.98 894.05 305.46 898.58 292.94 901.68 280.42 903.11 267.9 902.77 255.38 900.68 242.85 897.01 230.33 892.03 217.81 886.12 205.29 879.75 192.77 873.39 180.25 867.55 167.73 862.65 155.21 859.09 142.68 857.13 130.16 856.93 117.64 858.5 105.12 861.71 92.6 866.33 80.08 872 67.56 878.28 55.04 884.69 42.52 890.75 29.99 895.97 17.47 899.98 -0.88 897.74 -5.6 882.89 -4.24 872.74 -2.71 862.59 -1.1 852.44 0.52 842.29 3 827.07 4.43 822 17.44 814.77 30.3 805.88 42.98 795.54 55.52 784.1 67.92 771.97 80.18 759.64 92.34 747.58 104.41 736.27 116.41 726.1 128.37 717.38 140.3 710.28 152.24 704.86 164.2 701.05 176.19 698.62 188.25 697.27 200.38 696.59 212.59 696.13 224.89 695.43 237.29 694.04 249.78 691.59 262.36 687.78 275.03 682.42 287.77 675.47 300.57 666.99 313.41 657.17 326.28 646.31 339.15 634.8 352.01 623.05 364.84 611.51 377.61 600.6 390.31 590.68 402.92 582.04 415.43 574.86 427.82 569.2 440.09 564.99 452.23 562.05 464.25 560.12 476.14 558.83 487.92 557.78 499.6 556.56 511.19 554.76 522.72 552.04 534.21 548.12 545.68 542.83 557.17 536.11 568.69 528 580.29 518.68 591.98 508.4 603.81 497.49 615.79 486.33 627.94 475.32 640.29 464.83 652.86 455.2 665.65 446.69 678.68 439.46 691.93 433.58 705.42 429.01 719.11 425.6 733.01 423.1 747.09 421.21 761.31 419.57 775.65 417.82 790.07 415.58 804.53 412.56 814.71 413.16 824.9 413.05 835.09 412.19 845.3 410.55 855.51 408.16 865.73 405.07 875.96 401.38 886.19 397.19 896.43 392.67 906.68 387.96 916.92 383.24 927.18 378.68 937.43 374.43 947.69 370.63 957.94 367.42 968.2 364.89 978.46 363.09 988.72 362.05 998.98 361.76 1009.23 362.17 1019.48 363.2 1029.73 364.74 1039.97 366.65 1050.21 368.77 1060.44 370.94 1070.66 373 1080.88 374.78 1091.09 376.14 1101.29 376.96 1111.48 377.13 1121.66 376.58 1131.82 375.29 1141.98 373.26 1152.12 370.52 1162.25 367.15 1172.36 363.27 1182.46 358.98 1192.55 354.45 1202.61 349.83 1212.66 345.29 1222.7 340.99 1232.71 337.07 1242.7 333.66 1252.68 330.87 1262.63 328.77 1272.57 327.39 1282.48 326.75 1292.37 326.81 1302.23 327.51 1312.08 328.75 1321.9 330.41 1331.69 332.34 1341.46 334.4 1351.21 336.41 1360.93 338.23 1370.62 339.69 1380.29 340.69 1389.93 341.09 1399.55 340.84 1409.13 339.87 1418.69 338.18 1428.23 335.79 1437.73 332.75 1447.21 329.17" fill="url(#uuunion-grad3)" filter="url(#uuunion-blur2)"></path></svg>